<mxfile host="65bd71144e">
    <diagram id="E3eViA0_69F-ny0cbyZr" name="Page-1">
        <mxGraphModel dx="428" dy="771" grid="1" gridSize="10" guides="1" tooltips="1" connect="1" arrows="1" fold="1" page="1" pageScale="1" pageWidth="850" pageHeight="1100" math="0" shadow="0">
            <root>
                <mxCell id="0"/>
                <mxCell id="1" parent="0"/>
                <mxCell id="2" value="" style="whiteSpace=wrap;html=1;aspect=fixed;fillColor=none;dashed=1;dashPattern=8 8;strokeWidth=4;fontColor=#ffffff;strokeColor=#BF3600;" vertex="1" parent="1">
                    <mxGeometry x="80" y="60" width="580" height="580" as="geometry"/>
                </mxCell>
                <mxCell id="4" value="&lt;font color=&quot;#994c00&quot; style=&quot;font-size: 24px;&quot;&gt;Desing System&lt;/font&gt;" style="text;html=1;strokeColor=none;fillColor=none;align=center;verticalAlign=middle;whiteSpace=wrap;rounded=0;" vertex="1" parent="1">
                    <mxGeometry x="110" y="130" width="220" height="50" as="geometry"/>
                </mxCell>
                <mxCell id="5" value="Visual Desing Tools" style="rounded=0;whiteSpace=wrap;html=1;fontSize=18;fillColor=#60a917;fontColor=#ffffff;strokeColor=#2D7600;" vertex="1" parent="1">
                    <mxGeometry x="30" y="460" width="100" height="80" as="geometry"/>
                </mxCell>
                <mxCell id="6" value="Visual Desing Repository" style="rounded=0;whiteSpace=wrap;html=1;fontSize=18;fillColor=#647687;fontColor=#ffffff;strokeColor=#314354;" vertex="1" parent="1">
                    <mxGeometry x="190" y="460" width="100" height="80" as="geometry"/>
                </mxCell>
                <mxCell id="7" value="Desing Token Repository" style="rounded=0;whiteSpace=wrap;html=1;fontSize=18;fillColor=#d80073;fontColor=#ffffff;strokeColor=#A50040;" vertex="1" parent="1">
                    <mxGeometry x="350" y="460" width="100" height="80" as="geometry"/>
                </mxCell>
                <mxCell id="8" value="UI Library" style="rounded=0;whiteSpace=wrap;html=1;fontSize=18;fillColor=#1ba1e2;fontColor=#ffffff;strokeColor=#006EAF;" vertex="1" parent="1">
                    <mxGeometry x="500" y="460" width="100" height="80" as="geometry"/>
                </mxCell>
                <mxCell id="9" value="Package Manager /&amp;nbsp; Repo" style="rounded=0;whiteSpace=wrap;html=1;fontSize=18;fillColor=#0050ef;fontColor=#ffffff;strokeColor=#001DBC;" vertex="1" parent="1">
                    <mxGeometry x="600" y="600" width="100" height="80" as="geometry"/>
                </mxCell>
                <mxCell id="10" value="Visual Desing Generator&amp;nbsp;" style="rounded=0;whiteSpace=wrap;html=1;fontSize=18;fillColor=#fa6800;fontColor=#000000;strokeColor=#C73500;" vertex="1" parent="1">
                    <mxGeometry x="350" y="320" width="100" height="80" as="geometry"/>
                </mxCell>
                <mxCell id="11" value="Style Guide Genetator" style="rounded=0;whiteSpace=wrap;html=1;fontSize=18;fillColor=#6a00ff;fontColor=#ffffff;strokeColor=#3700CC;" vertex="1" parent="1">
                    <mxGeometry x="500" y="320" width="100" height="80" as="geometry"/>
                </mxCell>
                <mxCell id="12" value="Living Sytle Guide" style="rounded=0;whiteSpace=wrap;html=1;fontSize=18;fillColor=#6a00ff;fontColor=#ffffff;strokeColor=#3700CC;" vertex="1" parent="1">
                    <mxGeometry x="500" y="180" width="100" height="80" as="geometry"/>
                </mxCell>
                <mxCell id="13" value="APP /&amp;nbsp; Website" style="rounded=0;whiteSpace=wrap;html=1;fontSize=18;" vertex="1" parent="1">
                    <mxGeometry x="630" y="740" width="100" height="80" as="geometry"/>
                </mxCell>
                <mxCell id="14" value="APP /&amp;nbsp; Website" style="rounded=0;whiteSpace=wrap;html=1;fontSize=18;" vertex="1" parent="1">
                    <mxGeometry x="440" y="740" width="100" height="80" as="geometry"/>
                </mxCell>
                <mxCell id="15" value="APP /&amp;nbsp; Website" style="rounded=0;whiteSpace=wrap;html=1;fontSize=18;" vertex="1" parent="1">
                    <mxGeometry x="300" y="740" width="100" height="80" as="geometry"/>
                </mxCell>
                <mxCell id="18" value="" style="endArrow=classic;startArrow=classic;html=1;fontSize=18;exitX=1;exitY=0.5;exitDx=0;exitDy=0;entryX=0;entryY=0.5;entryDx=0;entryDy=0;fillColor=#fa6800;strokeColor=#C73500;strokeWidth=2;" edge="1" parent="1" source="5" target="6">
                    <mxGeometry width="50" height="50" relative="1" as="geometry">
                        <mxPoint x="560" y="330" as="sourcePoint"/>
                        <mxPoint x="610" y="280" as="targetPoint"/>
                    </mxGeometry>
                </mxCell>
                <mxCell id="19" value="" style="endArrow=classic;startArrow=classic;html=1;fontSize=18;exitX=1;exitY=0.5;exitDx=0;exitDy=0;strokeWidth=2;fillColor=#fa6800;strokeColor=#C73500;" edge="1" parent="1" source="6" target="7">
                    <mxGeometry width="50" height="50" relative="1" as="geometry">
                        <mxPoint x="560" y="330" as="sourcePoint"/>
                        <mxPoint x="610" y="280" as="targetPoint"/>
                    </mxGeometry>
                </mxCell>
                <mxCell id="23" value="&lt;b&gt;. . .&lt;/b&gt;" style="text;html=1;strokeColor=none;fillColor=none;align=center;verticalAlign=middle;whiteSpace=wrap;rounded=0;fontSize=18;" vertex="1" parent="1">
                    <mxGeometry x="560" y="765" width="60" height="30" as="geometry"/>
                </mxCell>
                <mxCell id="24" value="" style="endArrow=classic;html=1;fontSize=18;entryX=0.5;entryY=0;entryDx=0;entryDy=0;exitX=0;exitY=0.5;exitDx=0;exitDy=0;fillColor=#fa6800;strokeColor=#C73500;strokeWidth=2;" edge="1" parent="1" source="10" target="6">
                    <mxGeometry width="50" height="50" relative="1" as="geometry">
                        <mxPoint x="560" y="450" as="sourcePoint"/>
                        <mxPoint x="610" y="400" as="targetPoint"/>
                    </mxGeometry>
                </mxCell>
                <mxCell id="25" value="" style="endArrow=classic;html=1;fontSize=18;exitX=1;exitY=0.5;exitDx=0;exitDy=0;entryX=0;entryY=0.5;entryDx=0;entryDy=0;" edge="1" parent="1" source="7" target="8">
                    <mxGeometry width="50" height="50" relative="1" as="geometry">
                        <mxPoint x="560" y="450" as="sourcePoint"/>
                        <mxPoint x="610" y="400" as="targetPoint"/>
                    </mxGeometry>
                </mxCell>
                <mxCell id="26" value="" style="endArrow=classic;html=1;fontSize=18;exitX=0.5;exitY=0;exitDx=0;exitDy=0;entryX=0.5;entryY=1;entryDx=0;entryDy=0;fillColor=#fa6800;strokeColor=#C73500;strokeWidth=2;" edge="1" parent="1" source="8" target="11">
                    <mxGeometry width="50" height="50" relative="1" as="geometry">
                        <mxPoint x="560" y="450" as="sourcePoint"/>
                        <mxPoint x="610" y="400" as="targetPoint"/>
                    </mxGeometry>
                </mxCell>
                <mxCell id="27" value="" style="endArrow=classic;html=1;fontSize=18;entryX=0.5;entryY=1;entryDx=0;entryDy=0;strokeWidth=2;fillColor=#fa6800;strokeColor=#C73500;" edge="1" parent="1" target="12">
                    <mxGeometry width="50" height="50" relative="1" as="geometry">
                        <mxPoint x="550" y="320" as="sourcePoint"/>
                        <mxPoint x="600" y="270" as="targetPoint"/>
                    </mxGeometry>
                </mxCell>
                <mxCell id="28" value="" style="endArrow=classic;html=1;fontSize=18;entryX=0;entryY=0;entryDx=0;entryDy=0;exitX=0.5;exitY=1;exitDx=0;exitDy=0;fillColor=#fa6800;strokeColor=#C73500;strokeWidth=2;" edge="1" parent="1" source="8" target="9">
                    <mxGeometry width="50" height="50" relative="1" as="geometry">
                        <mxPoint x="560" y="450" as="sourcePoint"/>
                        <mxPoint x="610" y="400" as="targetPoint"/>
                    </mxGeometry>
                </mxCell>
                <mxCell id="29" value="" style="endArrow=classic;html=1;fontSize=18;entryX=0.5;entryY=0;entryDx=0;entryDy=0;strokeWidth=2;fillColor=#fa6800;strokeColor=#C73500;" edge="1" parent="1" target="15">
                    <mxGeometry width="50" height="50" relative="1" as="geometry">
                        <mxPoint x="650" y="680" as="sourcePoint"/>
                        <mxPoint x="610" y="400" as="targetPoint"/>
                    </mxGeometry>
                </mxCell>
                <mxCell id="30" value="" style="endArrow=classic;html=1;fontSize=18;entryX=0.5;entryY=0;entryDx=0;entryDy=0;exitX=0.5;exitY=1;exitDx=0;exitDy=0;strokeWidth=2;fillColor=#fa6800;strokeColor=#C73500;" edge="1" parent="1" source="9" target="14">
                    <mxGeometry width="50" height="50" relative="1" as="geometry">
                        <mxPoint x="560" y="450" as="sourcePoint"/>
                        <mxPoint x="610" y="400" as="targetPoint"/>
                    </mxGeometry>
                </mxCell>
                <mxCell id="31" value="" style="endArrow=classic;html=1;fontSize=18;entryX=0.75;entryY=0;entryDx=0;entryDy=0;exitX=0.5;exitY=1;exitDx=0;exitDy=0;fillColor=#fa6800;strokeColor=#C73500;strokeWidth=2;" edge="1" parent="1" source="9" target="13">
                    <mxGeometry width="50" height="50" relative="1" as="geometry">
                        <mxPoint x="560" y="450" as="sourcePoint"/>
                        <mxPoint x="610" y="400" as="targetPoint"/>
                    </mxGeometry>
                </mxCell>
            </root>
        </mxGraphModel>
    </diagram>
</mxfile>